<svg id="SvgjsSvg1486" width="682" height="490.59375" xmlns="http://www.w3.org/2000/svg" version="1.1" xmlns:xlink="http://www.w3.org/1999/xlink" xmlns:svgjs="http://svgjs.com/svgjs"><defs id="SvgjsDefs1487"><marker id="SvgjsMarker1506" markerWidth="16" markerHeight="12" refX="16" refY="6" viewBox="0 0 16 12" orient="auto" markerUnits="userSpaceOnUse" stroke-dasharray="0,0"><path id="SvgjsPath1507" d="M0,2 L14,6 L0,11 L0,2" fill="#323232" stroke="#323232" stroke-width="2"></path></marker><marker id="SvgjsMarker1516" markerWidth="16" markerHeight="12" refX="16" refY="6" viewBox="0 0 16 12" orient="auto" markerUnits="userSpaceOnUse" stroke-dasharray="0,0"><path id="SvgjsPath1517" d="M0,2 L14,6 L0,11 L0,2" fill="#323232" stroke="#323232" stroke-width="2"></path></marker><marker id="SvgjsMarker1520" markerWidth="16" markerHeight="12" refX="16" refY="6" viewBox="0 0 16 12" orient="auto" markerUnits="userSpaceOnUse" stroke-dasharray="0,0"><path id="SvgjsPath1521" d="M0,2 L14,6 L0,11 L0,2" fill="#323232" stroke="#323232" stroke-width="2"></path></marker><marker id="SvgjsMarker1524" markerWidth="16" markerHeight="12" refX="16" refY="6" viewBox="0 0 16 12" orient="auto" markerUnits="userSpaceOnUse" stroke-dasharray="0,0"><path id="SvgjsPath1525" d="M0,2 L14,6 L0,11 L0,2" fill="#323232" stroke="#323232" stroke-width="2"></path></marker><marker id="SvgjsMarker1540" markerWidth="16" markerHeight="12" refX="16" refY="6" viewBox="0 0 16 12" orient="auto" markerUnits="userSpaceOnUse" stroke-dasharray="0,0"><path id="SvgjsPath1541" d="M0,2 L14,6 L0,11 L0,2" fill="#323232" stroke="#323232" stroke-width="2"></path></marker><marker id="SvgjsMarker1560" markerWidth="16" markerHeight="12" refX="16" refY="6" viewBox="0 0 16 12" orient="auto" markerUnits="userSpaceOnUse" stroke-dasharray="0,0"><path id="SvgjsPath1561" d="M0,2 L14,6 L0,11 L0,2" fill="#323232" stroke="#323232" stroke-width="2"></path></marker><marker id="SvgjsMarker1570" markerWidth="16" markerHeight="12" refX="16" refY="6" viewBox="0 0 16 12" orient="auto" markerUnits="userSpaceOnUse" stroke-dasharray="0,0"><path id="SvgjsPath1571" d="M0,2 L14,6 L0,11 L0,2" fill="#323232" stroke="#323232" stroke-width="2"></path></marker><marker id="SvgjsMarker1574" markerWidth="16" markerHeight="12" refX="16" refY="6" viewBox="0 0 16 12" orient="auto" markerUnits="userSpaceOnUse" stroke-dasharray="0,0"><path id="SvgjsPath1575" d="M0,2 L14,6 L0,11 L0,2" fill="#323232" stroke="#323232" stroke-width="2"></path></marker><marker id="SvgjsMarker1590" markerWidth="16" markerHeight="12" refX="16" refY="6" viewBox="0 0 16 12" orient="auto" markerUnits="userSpaceOnUse" stroke-dasharray="0,0"><path id="SvgjsPath1591" d="M0,2 L14,6 L0,11 L0,2" fill="#323232" stroke="#323232" stroke-width="2"></path></marker><marker id="SvgjsMarker1594" markerWidth="16" markerHeight="12" refX="16" refY="6" viewBox="0 0 16 12" orient="auto" markerUnits="userSpaceOnUse" stroke-dasharray="0,0"><path id="SvgjsPath1595" d="M0,2 L14,6 L0,11 L0,2" fill="#323232" stroke="#323232" stroke-width="2"></path></marker><marker id="SvgjsMarker1616" markerWidth="16" markerHeight="12" refX="16" refY="6" viewBox="0 0 16 12" orient="auto" markerUnits="userSpaceOnUse" stroke-dasharray="0,0"><path id="SvgjsPath1617" d="M0,2 L14,6 L0,11 L0,2" fill="#323232" stroke="#323232" stroke-width="2"></path></marker><marker id="SvgjsMarker1624" markerWidth="16" markerHeight="12" refX="16" refY="6" viewBox="0 0 16 12" orient="auto" markerUnits="userSpaceOnUse" stroke-dasharray="0,0"><path id="SvgjsPath1625" d="M0,2 L14,6 L0,11 L0,2" fill="#323232" stroke="#323232" stroke-width="2"></path></marker><marker id="SvgjsMarker1632" markerWidth="16" markerHeight="12" refX="16" refY="6" viewBox="0 0 16 12" orient="auto" markerUnits="userSpaceOnUse" stroke-dasharray="0,0"><path id="SvgjsPath1633" d="M0,2 L14,6 L0,11 L0,2" fill="#323232" stroke="#323232" stroke-width="2"></path></marker><marker id="SvgjsMarker1636" markerWidth="16" markerHeight="12" refX="16" refY="6" viewBox="0 0 16 12" orient="auto" markerUnits="userSpaceOnUse" stroke-dasharray="0,0"><path id="SvgjsPath1637" d="M0,2 L14,6 L0,11 L0,2" fill="#323232" stroke="#323232" stroke-width="2"></path></marker><marker id="SvgjsMarker1640" markerWidth="16" markerHeight="12" refX="16" refY="6" viewBox="0 0 16 12" orient="auto" markerUnits="userSpaceOnUse" stroke-dasharray="0,0"><path id="SvgjsPath1641" d="M0,2 L14,6 L0,11 L0,2" fill="#323232" stroke="#323232" stroke-width="2"></path></marker><marker id="SvgjsMarker1644" markerWidth="16" markerHeight="12" refX="16" refY="6" viewBox="0 0 16 12" orient="auto" markerUnits="userSpaceOnUse" stroke-dasharray="0,0"><path id="SvgjsPath1645" d="M0,2 L14,6 L0,11 L0,2" fill="#323232" stroke="#323232" stroke-width="2"></path></marker><marker id="SvgjsMarker1648" markerWidth="16" markerHeight="12" refX="16" refY="6" viewBox="0 0 16 12" orient="auto" markerUnits="userSpaceOnUse" stroke-dasharray="0,0"><path id="SvgjsPath1649" d="M0,2 L14,6 L0,11 L0,2" fill="#323232" stroke="#323232" stroke-width="2"></path></marker><marker id="SvgjsMarker1656" markerWidth="16" markerHeight="12" refX="16" refY="6" viewBox="0 0 16 12" orient="auto" markerUnits="userSpaceOnUse" stroke-dasharray="0,0"><path id="SvgjsPath1657" d="M0,2 L14,6 L0,11 L0,2" fill="#323232" stroke="#323232" stroke-width="2"></path></marker><marker id="SvgjsMarker1672" markerWidth="16" markerHeight="12" refX="16" refY="6" viewBox="0 0 16 12" orient="auto" markerUnits="userSpaceOnUse" stroke-dasharray="0,0"><path id="SvgjsPath1673" d="M0,2 L14,6 L0,11 L0,2" fill="#323232" stroke="#323232" stroke-width="2"></path></marker><marker id="SvgjsMarker1692" markerWidth="16" markerHeight="12" refX="16" refY="6" viewBox="0 0 16 12" orient="auto" markerUnits="userSpaceOnUse" stroke-dasharray="0,0"><path id="SvgjsPath1693" d="M0,2 L14,6 L0,11 L0,2" fill="#323232" stroke="#323232" stroke-width="2"></path></marker><marker id="SvgjsMarker1700" markerWidth="16" markerHeight="12" refX="16" refY="6" viewBox="0 0 16 12" orient="auto" markerUnits="userSpaceOnUse" stroke-dasharray="0,0"><path id="SvgjsPath1701" d="M0,2 L14,6 L0,11 L0,2" fill="#323232" stroke="#323232" stroke-width="2"></path></marker><marker id="SvgjsMarker1712" markerWidth="16" markerHeight="12" refX="16" refY="6" viewBox="0 0 16 12" orient="auto" markerUnits="userSpaceOnUse" stroke-dasharray="0,0"><path id="SvgjsPath1713" d="M0,2 L14,6 L0,11 L0,2" fill="#323232" stroke="#323232" stroke-width="2"></path></marker></defs><g id="SvgjsG1488" transform="translate(231,25)"><path id="SvgjsPath1489" d="M 0 0L 100 0L 100 70L 0 70Z" stroke="rgba(50,50,50,1)" stroke-width="2" fill-opacity="1" fill="#ffffff"></path><g id="SvgjsG1490"><text id="SvgjsText1491" font-family="微软雅黑" text-anchor="middle" font-size="13px" width="80px" fill="#323232" font-weight="400" align="middle" anchor="middle" family="微软雅黑" size="13px" weight="400" font-style="" opacity="1" y="17.05" transform="rotate(0)"><tspan id="SvgjsTspan1492" dy="16" x="50"><tspan id="SvgjsTspan1493" style="text-decoration:;">onEnable</tspan></tspan><tspan id="SvgjsTspan1494" dy="16" x="50"><tspan id="SvgjsTspan1495" style="text-decoration:;">插件启动事件</tspan></tspan></text></g></g><g id="SvgjsG1496" transform="translate(396,25)"><path id="SvgjsPath1497" d="M 0 0L 100 0L 100 70L 0 70Z" stroke="rgba(50,50,50,1)" stroke-width="2" fill-opacity="1" fill="#ffffff"></path><g id="SvgjsG1498"><text id="SvgjsText1499" font-family="微软雅黑" text-anchor="middle" font-size="13px" width="80px" fill="#323232" font-weight="400" align="middle" anchor="middle" family="微软雅黑" size="13px" weight="400" font-style="" opacity="1" y="17.05" transform="rotate(0)"><tspan id="SvgjsTspan1500" dy="16" x="50"><tspan id="SvgjsTspan1501" style="text-decoration:;">验证dll</tspan></tspan><tspan id="SvgjsTspan1502" dy="16" x="50"><tspan id="SvgjsTspan1503" style="text-decoration:;">初始化jni</tspan></tspan></text></g></g><g id="SvgjsG1504"><path id="SvgjsPath1505" d="M331 60L362 60L362 60L396 60" stroke="#323232" stroke-width="2" fill="none" marker-end="url(#SvgjsMarker1506)"></path></g><g id="SvgjsG1508" transform="translate(48,84)"><path id="SvgjsPath1509" d="M 16.666666666666668 0L 83.33333333333333 0C 105.55555555555556 0 105.55555555555556 50 83.33333333333333 50L 16.666666666666668 50C -5.555555555555556 50 -5.555555555555556 0 16.666666666666668 0Z" stroke="rgba(50,50,50,1)" stroke-width="2" fill-opacity="1" fill="#ffffff"></path><g id="SvgjsG1510"><text id="SvgjsText1511" font-family="微软雅黑" text-anchor="middle" font-size="13px" width="80px" fill="#323232" font-weight="400" align="middle" anchor="middle" family="微软雅黑" size="13px" weight="400" font-style="" opacity="1" y="15.05" transform="rotate(0)"><tspan id="SvgjsTspan1512" dy="16" x="50"><tspan id="SvgjsTspan1513" style="text-decoration:;">mirai</tspan></tspan></text></g></g><g id="SvgjsG1514"><path id="SvgjsPath1515" d="M148 109L189.5 109L189.5 60L231 60" stroke="#323232" stroke-width="2" fill="none" marker-end="url(#SvgjsMarker1516)"></path></g><g id="SvgjsG1518"><path id="SvgjsPath1519" d="M118 132L118 206L238 206" stroke="#323232" stroke-width="2" fill="none" marker-end="url(#SvgjsMarker1520)"></path></g><g id="SvgjsG1522"><path id="SvgjsPath1523" d="M338 206L370.5 206L370.5 253L403 253" stroke="#323232" stroke-width="2" fill="none" marker-end="url(#SvgjsMarker1524)"></path></g><g id="SvgjsG1526" transform="translate(403,218)"><path id="SvgjsPath1527" d="M 0 0L 100 0L 100 70L 0 70Z" stroke="rgba(50,50,50,1)" stroke-width="2" fill-opacity="1" fill="#ffffff"></path><g id="SvgjsG1528"><text id="SvgjsText1529" font-family="微软雅黑" text-anchor="middle" font-size="13px" width="80px" fill="#323232" font-weight="400" align="middle" anchor="middle" family="微软雅黑" size="13px" weight="400" font-style="" opacity="1" y="1.05" transform="rotate(0)"><tspan id="SvgjsTspan1530" dy="16" x="50"><tspan id="SvgjsTspan1531" style="text-decoration:;">kotlin部分分</tspan></tspan><tspan id="SvgjsTspan1532" dy="16" x="50"><tspan id="SvgjsTspan1533" style="text-decoration:;">流，构建json</tspan></tspan><tspan id="SvgjsTspan1534" dy="16" x="50"><tspan id="SvgjsTspan1535" style="text-decoration:;">如果有返回值</tspan></tspan><tspan id="SvgjsTspan1536" dy="16" x="50"><tspan id="SvgjsTspan1537" style="text-decoration:;">返回</tspan></tspan></text></g></g><g id="SvgjsG1538"><path id="SvgjsPath1539" d="M482 288L482 321L482 321L482 354" stroke="#323232" stroke-width="2" fill="none" marker-end="url(#SvgjsMarker1540)"></path><rect id="SvgjsRect1542" width="15" height="16" x="474.5" y="313" fill="#ffffff"></rect><text id="SvgjsText1543" font-family="微软雅黑" text-anchor="middle" font-size="13px" width="15px" fill="#323232" font-weight="400" align="top" anchor="middle" family="微软雅黑" size="13px" weight="400" font-style="" opacity="1" y="311.05" transform="rotate(0)"><tspan id="SvgjsTspan1544" dy="16" x="482"><tspan id="SvgjsTspan1545" style="text-decoration:;">jni</tspan></tspan></text></g><g id="SvgjsG1546" transform="translate(403,354)"><path id="SvgjsPath1547" d="M 0 0L 100 0L 100 70L 0 70Z" stroke="rgba(50,50,50,1)" stroke-width="2" fill-opacity="1" fill="#ffffff"></path><g id="SvgjsG1548"><text id="SvgjsText1549" font-family="微软雅黑" text-anchor="middle" font-size="13px" width="80px" fill="#323232" font-weight="400" align="middle" anchor="middle" family="微软雅黑" size="13px" weight="400" font-style="" opacity="1" y="1.05" transform="rotate(0)"><tspan id="SvgjsTspan1550" dy="16" x="50"><tspan id="SvgjsTspan1551" style="text-decoration:;">dll部分接收</tspan></tspan><tspan id="SvgjsTspan1552" dy="16" x="50"><tspan id="SvgjsTspan1553" style="text-decoration:;">构建数据结构</tspan></tspan><tspan id="SvgjsTspan1554" dy="16" x="50"><tspan id="SvgjsTspan1555" style="text-decoration:;">作为参数广播</tspan></tspan><tspan id="SvgjsTspan1556" dy="16" x="50"><tspan id="SvgjsTspan1557" style="text-decoration:;">事件</tspan></tspan></text></g></g><g id="SvgjsG1558"><path id="SvgjsPath1559" d="M118 134L118 253L238 253" stroke="#323232" stroke-width="2" fill="none" marker-end="url(#SvgjsMarker1560)"></path></g><g id="SvgjsG1562" transform="translate(238,234.5)"><path id="SvgjsPath1563" d="M 0 0L 100 0L 100 37L 0 37Z" stroke="rgba(50,50,50,1)" stroke-width="2" fill-opacity="1" fill="#ffffff"></path><g id="SvgjsG1564"><text id="SvgjsText1565" font-family="微软雅黑" text-anchor="middle" font-size="13px" width="80px" fill="#323232" font-weight="400" align="middle" anchor="middle" family="微软雅黑" size="13px" weight="400" font-style="" opacity="1" y="8.55" transform="rotate(0)"><tspan id="SvgjsTspan1566" dy="16" x="50"><tspan id="SvgjsTspan1567" style="text-decoration:;">群聊消息事件</tspan></tspan></text></g></g><g id="SvgjsG1568"><path id="SvgjsPath1569" d="M338 253L370.5 253L370.5 253L403 253" stroke="#323232" stroke-width="2" fill="none" marker-end="url(#SvgjsMarker1570)"></path></g><g id="SvgjsG1572"><path id="SvgjsPath1573" d="M118 134L118 302.5L238 302.5" stroke="#323232" stroke-width="2" fill="none" marker-end="url(#SvgjsMarker1574)"></path></g><g id="SvgjsG1576" transform="translate(238,187.5)"><path id="SvgjsPath1577" d="M 0 0L 100 0L 100 37L 0 37Z" stroke="rgba(50,50,50,1)" stroke-width="2" fill-opacity="1" fill="#ffffff"></path><g id="SvgjsG1578"><text id="SvgjsText1579" font-family="微软雅黑" text-anchor="middle" font-size="13px" width="80px" fill="#323232" font-weight="400" align="middle" anchor="middle" family="微软雅黑" size="13px" weight="400" font-style="" opacity="1" y="8.55" transform="rotate(0)"><tspan id="SvgjsTspan1580" dy="16" x="50"><tspan id="SvgjsTspan1581" style="text-decoration:;">私聊消息事件</tspan></tspan></text></g></g><g id="SvgjsG1582" transform="translate(238,284)"><path id="SvgjsPath1583" d="M 0 0L 100 0L 100 37L 0 37Z" stroke="rgba(50,50,50,1)" stroke-width="2" fill-opacity="1" fill="#ffffff"></path><g id="SvgjsG1584"><text id="SvgjsText1585" font-family="微软雅黑" text-anchor="middle" font-size="13px" width="80px" fill="#323232" font-weight="400" align="middle" anchor="middle" family="微软雅黑" size="13px" weight="400" font-style="" opacity="1" y="8.55" transform="rotate(0)"><tspan id="SvgjsTspan1586" dy="16" x="50"><tspan id="SvgjsTspan1587" style="text-decoration:;">...</tspan></tspan></text></g></g><g id="SvgjsG1588"><path id="SvgjsPath1589" d="M338 302.5L370.5 302.5L370.5 253L403 253" stroke="#323232" stroke-width="2" fill="none" marker-end="url(#SvgjsMarker1590)"></path></g><g id="SvgjsG1592"><path id="SvgjsPath1593" d="M403 389L353 389L353 389L303 389" stroke="#323232" stroke-width="2" fill="none" marker-end="url(#SvgjsMarker1594)"></path><rect id="SvgjsRect1596" width="26" height="16" x="340" y="381" fill="#ffffff"></rect><text id="SvgjsText1597" font-family="微软雅黑" text-anchor="middle" font-size="13px" width="26px" fill="#323232" font-weight="400" align="top" anchor="middle" family="微软雅黑" size="13px" weight="400" font-style="" opacity="1" y="379.05" transform="rotate(0)"><tspan id="SvgjsTspan1598" dy="16" x="353"><tspan id="SvgjsTspan1599" style="text-decoration:;">数据</tspan></tspan></text></g><g id="SvgjsG1600" transform="translate(192,342.5)"><path id="SvgjsPath1601" d="M 0 0L 111 0L 111 93L 0 93Z" stroke="rgba(50,50,50,1)" stroke-width="2" fill-opacity="1" fill="#ffffff"></path><g id="SvgjsG1602"><text id="SvgjsText1603" font-family="微软雅黑" text-anchor="middle" font-size="13px" width="91px" fill="#323232" font-weight="400" align="middle" anchor="middle" family="微软雅黑" size="13px" weight="400" font-style="" opacity="1" y="4.55" transform="rotate(0)"><tspan id="SvgjsTspan1604" dy="16" x="55.5"><tspan id="SvgjsTspan1605" style="text-decoration:;">逐个执行(也就</tspan></tspan><tspan id="SvgjsTspan1606" dy="16" x="55.5"><tspan id="SvgjsTspan1607" style="text-decoration:;">是广播)存在</tspan></tspan><tspan id="SvgjsTspan1608" dy="16" x="55.5"><tspan id="SvgjsTspan1609" style="text-decoration:;">vector(动态数</tspan></tspan><tspan id="SvgjsTspan1610" dy="16" x="55.5"><tspan id="SvgjsTspan1611" style="text-decoration:;">组)里的lambda</tspan></tspan><tspan id="SvgjsTspan1612" dy="16" x="55.5"><tspan id="SvgjsTspan1613" style="text-decoration:;">并传入对应数据</tspan></tspan></text></g></g><g id="SvgjsG1614"><path id="SvgjsPath1615" d="M247.5 435.5L247.5 465.5L453 465.5L453 424" stroke="#323232" stroke-width="2" fill="none" marker-end="url(#SvgjsMarker1616)"></path><rect id="SvgjsRect1618" width="78" height="16" x="317" y="457.5" fill="#ffffff"></rect><text id="SvgjsText1619" font-family="微软雅黑" text-anchor="middle" font-size="13px" width="78px" fill="#323232" font-weight="400" align="top" anchor="middle" family="微软雅黑" size="13px" weight="400" font-style="" opacity="1" y="455.55" transform="rotate(0)"><tspan id="SvgjsTspan1620" dy="16" x="356"><tspan id="SvgjsTspan1621" style="text-decoration:;">部分有返回值</tspan></tspan></text></g><g id="SvgjsG1622"><path id="SvgjsPath1623" d="M434 354L434 321L434 321L434 288" stroke="#323232" stroke-width="2" fill="none" marker-end="url(#SvgjsMarker1624)"></path><rect id="SvgjsRect1626" width="15" height="16" x="426.5" y="313" fill="#ffffff"></rect><text id="SvgjsText1627" font-family="微软雅黑" text-anchor="middle" font-size="13px" width="15px" fill="#323232" font-weight="400" align="top" anchor="middle" family="微软雅黑" size="13px" weight="400" font-style="" opacity="1" y="311.05" transform="rotate(0)"><tspan id="SvgjsTspan1628" dy="16" x="434"><tspan id="SvgjsTspan1629" style="text-decoration:;">jni</tspan></tspan></text></g><g id="SvgjsG1630"><path id="SvgjsPath1631" d="M403 253L370.5 253L370.5 302.5L338 302.5" stroke="#323232" stroke-width="2" fill="none" marker-end="url(#SvgjsMarker1632)"></path></g><g id="SvgjsG1634"><path id="SvgjsPath1635" d="M403 253L370.5 253L370.5 253L338 253" stroke="#323232" stroke-width="2" fill="none" marker-end="url(#SvgjsMarker1636)"></path></g><g id="SvgjsG1638"><path id="SvgjsPath1639" d="M403 253L370.5 253L370.5 206L338 206" stroke="#323232" stroke-width="2" fill="none" marker-end="url(#SvgjsMarker1640)"></path></g><g id="SvgjsG1642"><path id="SvgjsPath1643" d="M238 302.5L118 302.5L118 134" stroke="#323232" stroke-width="2" fill="none" marker-end="url(#SvgjsMarker1644)"></path></g><g id="SvgjsG1646"><path id="SvgjsPath1647" d="M74 354L74 244L74 244L74 134" stroke="#323232" stroke-width="2" fill="none" marker-end="url(#SvgjsMarker1648)"></path><rect id="SvgjsRect1650" width="15" height="16" x="66.5" y="236" fill="#ffffff"></rect><text id="SvgjsText1651" font-family="微软雅黑" text-anchor="middle" font-size="13px" width="15px" fill="#323232" font-weight="400" align="top" anchor="middle" family="微软雅黑" size="13px" weight="400" font-style="" opacity="1" y="234.05" transform="rotate(0)"><tspan id="SvgjsTspan1652" dy="16" x="74"><tspan id="SvgjsTspan1653" style="text-decoration:;">jni</tspan></tspan></text></g><g id="SvgjsG1654"><path id="SvgjsPath1655" d="M192 389L158.5 389L158.5 389L125 389" stroke="#323232" stroke-width="2" fill="none" marker-end="url(#SvgjsMarker1656)"></path></g><g id="SvgjsG1658" transform="translate(25,354)"><path id="SvgjsPath1659" d="M 0 0L 100 0L 100 70L 0 70Z" stroke="rgba(50,50,50,1)" stroke-width="2" fill-opacity="1" fill="#ffffff"></path><g id="SvgjsG1660"><text id="SvgjsText1661" font-family="微软雅黑" text-anchor="middle" font-size="13px" width="80px" fill="#323232" font-weight="400" align="middle" anchor="middle" family="微软雅黑" size="13px" weight="400" font-style="" opacity="1" y="1.05" transform="rotate(0)"><tspan id="SvgjsTspan1662" dy="16" x="50"><tspan id="SvgjsTspan1663" style="text-decoration:;">通过一些方法</tspan></tspan><tspan id="SvgjsTspan1664" dy="16" x="50"><tspan id="SvgjsTspan1665" style="text-decoration:;">直接执行</tspan></tspan><tspan id="SvgjsTspan1666" dy="16" x="50"><tspan id="SvgjsTspan1667" style="text-decoration:;">mirai操作(如</tspan></tspan><tspan id="SvgjsTspan1668" dy="16" x="50"><tspan id="SvgjsTspan1669" style="text-decoration:;">发送消息)</tspan></tspan></text></g></g><g id="SvgjsG1670"><path id="SvgjsPath1671" d="M496 60L526.5 60L526.5 60L557 60" stroke="#323232" stroke-width="2" fill="none" marker-end="url(#SvgjsMarker1672)"></path><rect id="SvgjsRect1674" width="15" height="16" x="519" y="52" fill="#ffffff"></rect><text id="SvgjsText1675" font-family="微软雅黑" text-anchor="middle" font-size="13px" width="15px" fill="#323232" font-weight="400" align="top" anchor="middle" family="微软雅黑" size="13px" weight="400" font-style="" opacity="1" y="50.05" transform="rotate(0)"><tspan id="SvgjsTspan1676" dy="16" x="526.5"><tspan id="SvgjsTspan1677" style="text-decoration:;">jni</tspan></tspan></text></g><g id="SvgjsG1678" transform="translate(557,25)"><path id="SvgjsPath1679" d="M 0 0L 100 0L 100 70L 0 70Z" stroke="rgba(50,50,50,1)" stroke-width="2" fill-opacity="1" fill="#ffffff"></path><g id="SvgjsG1680"><text id="SvgjsText1681" font-family="微软雅黑" text-anchor="middle" font-size="13px" width="80px" fill="#323232" font-weight="400" align="middle" anchor="middle" family="微软雅黑" size="13px" weight="400" font-style="" opacity="1" y="1.05" transform="rotate(0)"><tspan id="SvgjsTspan1682" dy="16" x="50"><tspan id="SvgjsTspan1683" style="text-decoration:;">返回指定值验</tspan></tspan><tspan id="SvgjsTspan1684" dy="16" x="50"><tspan id="SvgjsTspan1685" style="text-decoration:;">证并调用</tspan></tspan><tspan id="SvgjsTspan1686" dy="16" x="50"><tspan id="SvgjsTspan1687" style="text-decoration:;">c++部分的</tspan></tspan><tspan id="SvgjsTspan1688" dy="16" x="50"><tspan id="SvgjsTspan1689" style="text-decoration:;">onEnable()</tspan></tspan></text></g></g><g id="SvgjsG1690"><path id="SvgjsPath1691" d="M557 60L526.5 60L526.5 60L496 60" stroke="#323232" stroke-width="2" fill="none" marker-end="url(#SvgjsMarker1692)"></path><rect id="SvgjsRect1694" width="15" height="16" x="519" y="52" fill="#ffffff"></rect><text id="SvgjsText1695" font-family="微软雅黑" text-anchor="middle" font-size="13px" width="15px" fill="#323232" font-weight="400" align="top" anchor="middle" family="微软雅黑" size="13px" weight="400" font-style="" opacity="1" y="50.05" transform="rotate(0)"><tspan id="SvgjsTspan1696" dy="16" x="526.5"><tspan id="SvgjsTspan1697" style="text-decoration:;">jni</tspan></tspan></text></g><g id="SvgjsG1698"><path id="SvgjsPath1699" d="M148 109L189.5 109L189.5 141L231 141" stroke="#323232" stroke-width="2" fill="none" marker-end="url(#SvgjsMarker1700)"></path></g><g id="SvgjsG1702" transform="translate(231,106)"><path id="SvgjsPath1703" d="M 0 0L 100 0L 100 70L 0 70Z" stroke="rgba(50,50,50,1)" stroke-width="2" fill-opacity="1" fill="#ffffff"></path><g id="SvgjsG1704"><text id="SvgjsText1705" font-family="微软雅黑" text-anchor="middle" font-size="13px" width="80px" fill="#323232" font-weight="400" align="middle" anchor="middle" family="微软雅黑" size="13px" weight="400" font-style="" opacity="1" y="17.05" transform="rotate(0)"><tspan id="SvgjsTspan1706" dy="16" x="50"><tspan id="SvgjsTspan1707" style="text-decoration:;">onDisable</tspan></tspan><tspan id="SvgjsTspan1708" dy="16" x="50"><tspan id="SvgjsTspan1709" style="text-decoration:;">插件结束事件</tspan></tspan></text></g></g><g id="SvgjsG1710"><path id="SvgjsPath1711" d="M331 141L362 141L362 141L393 141" stroke="#323232" stroke-width="2" fill="none" marker-end="url(#SvgjsMarker1712)"></path><rect id="SvgjsRect1714" width="15" height="16" x="354.5" y="133" fill="#ffffff"></rect><text id="SvgjsText1715" font-family="微软雅黑" text-anchor="middle" font-size="13px" width="15px" fill="#323232" font-weight="400" align="top" anchor="middle" family="微软雅黑" size="13px" weight="400" font-style="" opacity="1" y="131.05" transform="rotate(0)"><tspan id="SvgjsTspan1716" dy="16" x="362"><tspan id="SvgjsTspan1717" style="text-decoration:;">jni</tspan></tspan></text></g><g id="SvgjsG1718" transform="translate(393,106)"><path id="SvgjsPath1719" d="M 0 0L 100 0L 100 70L 0 70Z" stroke="rgba(50,50,50,1)" stroke-width="2" fill-opacity="1" fill="#ffffff"></path><g id="SvgjsG1720"><text id="SvgjsText1721" font-family="微软雅黑" text-anchor="middle" font-size="13px" width="80px" fill="#323232" font-weight="400" align="middle" anchor="middle" family="微软雅黑" size="13px" weight="400" font-style="" opacity="1" y="17.05" transform="rotate(0)"><tspan id="SvgjsTspan1722" dy="16" x="50"><tspan id="SvgjsTspan1723" style="text-decoration:;">调用c++部分</tspan></tspan><tspan id="SvgjsTspan1724" dy="16" x="50"><tspan id="SvgjsTspan1725" style="text-decoration:;">onDisable</tspan></tspan></text></g></g></svg>