<svg id="SvgjsSvg1246" width="682" height="490.59375" xmlns="http://www.w3.org/2000/svg" version="1.1" xmlns:xlink="http://www.w3.org/1999/xlink" xmlns:svgjs="http://svgjs.com/svgjs"><defs id="SvgjsDefs1247"><marker id="SvgjsMarker1266" markerWidth="16" markerHeight="12" refX="16" refY="6" viewBox="0 0 16 12" orient="auto" markerUnits="userSpaceOnUse" stroke-dasharray="0,0"><path id="SvgjsPath1267" d="M0,2 L14,6 L0,11 L0,2" fill="#323232" stroke="#323232" stroke-width="2"></path></marker><marker id="SvgjsMarker1276" markerWidth="16" markerHeight="12" refX="16" refY="6" viewBox="0 0 16 12" orient="auto" markerUnits="userSpaceOnUse" stroke-dasharray="0,0"><path id="SvgjsPath1277" d="M0,2 L14,6 L0,11 L0,2" fill="#323232" stroke="#323232" stroke-width="2"></path></marker><marker id="SvgjsMarker1280" markerWidth="16" markerHeight="12" refX="16" refY="6" viewBox="0 0 16 12" orient="auto" markerUnits="userSpaceOnUse" stroke-dasharray="0,0"><path id="SvgjsPath1281" d="M0,2 L14,6 L0,11 L0,2" fill="#323232" stroke="#323232" stroke-width="2"></path></marker><marker id="SvgjsMarker1284" markerWidth="16" markerHeight="12" refX="16" refY="6" viewBox="0 0 16 12" orient="auto" markerUnits="userSpaceOnUse" stroke-dasharray="0,0"><path id="SvgjsPath1285" d="M0,2 L14,6 L0,11 L0,2" fill="#323232" stroke="#323232" stroke-width="2"></path></marker><marker id="SvgjsMarker1300" markerWidth="16" markerHeight="12" refX="16" refY="6" viewBox="0 0 16 12" orient="auto" markerUnits="userSpaceOnUse" stroke-dasharray="0,0"><path id="SvgjsPath1301" d="M0,2 L14,6 L0,11 L0,2" fill="#323232" stroke="#323232" stroke-width="2"></path></marker><marker id="SvgjsMarker1320" markerWidth="16" markerHeight="12" refX="16" refY="6" viewBox="0 0 16 12" orient="auto" markerUnits="userSpaceOnUse" stroke-dasharray="0,0"><path id="SvgjsPath1321" d="M0,2 L14,6 L0,11 L0,2" fill="#323232" stroke="#323232" stroke-width="2"></path></marker><marker id="SvgjsMarker1330" markerWidth="16" markerHeight="12" refX="16" refY="6" viewBox="0 0 16 12" orient="auto" markerUnits="userSpaceOnUse" stroke-dasharray="0,0"><path id="SvgjsPath1331" d="M0,2 L14,6 L0,11 L0,2" fill="#323232" stroke="#323232" stroke-width="2"></path></marker><marker id="SvgjsMarker1334" markerWidth="16" markerHeight="12" refX="16" refY="6" viewBox="0 0 16 12" orient="auto" markerUnits="userSpaceOnUse" stroke-dasharray="0,0"><path id="SvgjsPath1335" d="M0,2 L14,6 L0,11 L0,2" fill="#323232" stroke="#323232" stroke-width="2"></path></marker><marker id="SvgjsMarker1350" markerWidth="16" markerHeight="12" refX="16" refY="6" viewBox="0 0 16 12" orient="auto" markerUnits="userSpaceOnUse" stroke-dasharray="0,0"><path id="SvgjsPath1351" d="M0,2 L14,6 L0,11 L0,2" fill="#323232" stroke="#323232" stroke-width="2"></path></marker><marker id="SvgjsMarker1354" markerWidth="16" markerHeight="12" refX="16" refY="6" viewBox="0 0 16 12" orient="auto" markerUnits="userSpaceOnUse" stroke-dasharray="0,0"><path id="SvgjsPath1355" d="M0,2 L14,6 L0,11 L0,2" fill="#323232" stroke="#323232" stroke-width="2"></path></marker><marker id="SvgjsMarker1376" markerWidth="16" markerHeight="12" refX="16" refY="6" viewBox="0 0 16 12" orient="auto" markerUnits="userSpaceOnUse" stroke-dasharray="0,0"><path id="SvgjsPath1377" d="M0,2 L14,6 L0,11 L0,2" fill="#323232" stroke="#323232" stroke-width="2"></path></marker><marker id="SvgjsMarker1384" markerWidth="16" markerHeight="12" refX="16" refY="6" viewBox="0 0 16 12" orient="auto" markerUnits="userSpaceOnUse" stroke-dasharray="0,0"><path id="SvgjsPath1385" d="M0,2 L14,6 L0,11 L0,2" fill="#323232" stroke="#323232" stroke-width="2"></path></marker><marker id="SvgjsMarker1392" markerWidth="16" markerHeight="12" refX="16" refY="6" viewBox="0 0 16 12" orient="auto" markerUnits="userSpaceOnUse" stroke-dasharray="0,0"><path id="SvgjsPath1393" d="M0,2 L14,6 L0,11 L0,2" fill="#323232" stroke="#323232" stroke-width="2"></path></marker><marker id="SvgjsMarker1396" markerWidth="16" markerHeight="12" refX="16" refY="6" viewBox="0 0 16 12" orient="auto" markerUnits="userSpaceOnUse" stroke-dasharray="0,0"><path id="SvgjsPath1397" d="M0,2 L14,6 L0,11 L0,2" fill="#323232" stroke="#323232" stroke-width="2"></path></marker><marker id="SvgjsMarker1400" markerWidth="16" markerHeight="12" refX="16" refY="6" viewBox="0 0 16 12" orient="auto" markerUnits="userSpaceOnUse" stroke-dasharray="0,0"><path id="SvgjsPath1401" d="M0,2 L14,6 L0,11 L0,2" fill="#323232" stroke="#323232" stroke-width="2"></path></marker><marker id="SvgjsMarker1404" markerWidth="16" markerHeight="12" refX="16" refY="6" viewBox="0 0 16 12" orient="auto" markerUnits="userSpaceOnUse" stroke-dasharray="0,0"><path id="SvgjsPath1405" d="M0,2 L14,6 L0,11 L0,2" fill="#323232" stroke="#323232" stroke-width="2"></path></marker><marker id="SvgjsMarker1408" markerWidth="16" markerHeight="12" refX="16" refY="6" viewBox="0 0 16 12" orient="auto" markerUnits="userSpaceOnUse" stroke-dasharray="0,0"><path id="SvgjsPath1409" d="M0,2 L14,6 L0,11 L0,2" fill="#323232" stroke="#323232" stroke-width="2"></path></marker><marker id="SvgjsMarker1416" markerWidth="16" markerHeight="12" refX="16" refY="6" viewBox="0 0 16 12" orient="auto" markerUnits="userSpaceOnUse" stroke-dasharray="0,0"><path id="SvgjsPath1417" d="M0,2 L14,6 L0,11 L0,2" fill="#323232" stroke="#323232" stroke-width="2"></path></marker><marker id="SvgjsMarker1432" markerWidth="16" markerHeight="12" refX="16" refY="6" viewBox="0 0 16 12" orient="auto" markerUnits="userSpaceOnUse" stroke-dasharray="0,0"><path id="SvgjsPath1433" d="M0,2 L14,6 L0,11 L0,2" fill="#323232" stroke="#323232" stroke-width="2"></path></marker><marker id="SvgjsMarker1452" markerWidth="16" markerHeight="12" refX="16" refY="6" viewBox="0 0 16 12" orient="auto" markerUnits="userSpaceOnUse" stroke-dasharray="0,0"><path id="SvgjsPath1453" d="M0,2 L14,6 L0,11 L0,2" fill="#323232" stroke="#323232" stroke-width="2"></path></marker><marker id="SvgjsMarker1460" markerWidth="16" markerHeight="12" refX="16" refY="6" viewBox="0 0 16 12" orient="auto" markerUnits="userSpaceOnUse" stroke-dasharray="0,0"><path id="SvgjsPath1461" d="M0,2 L14,6 L0,11 L0,2" fill="#323232" stroke="#323232" stroke-width="2"></path></marker><marker id="SvgjsMarker1472" markerWidth="16" markerHeight="12" refX="16" refY="6" viewBox="0 0 16 12" orient="auto" markerUnits="userSpaceOnUse" stroke-dasharray="0,0"><path id="SvgjsPath1473" d="M0,2 L14,6 L0,11 L0,2" fill="#323232" stroke="#323232" stroke-width="2"></path></marker></defs><g id="SvgjsG1248" transform="translate(231,25)"><path id="SvgjsPath1249" d="M 0 0L 100 0L 100 70L 0 70Z" stroke="rgba(50,50,50,1)" stroke-width="2" fill-opacity="1" fill="#ffffff"></path><g id="SvgjsG1250"><text id="SvgjsText1251" font-family="微软雅黑" text-anchor="middle" font-size="13px" width="80px" fill="#323232" font-weight="400" align="middle" anchor="middle" family="微软雅黑" size="13px" weight="400" font-style="" opacity="1" y="17.05" transform="rotate(0)"><tspan id="SvgjsTspan1252" dy="16" x="50"><tspan id="SvgjsTspan1253" style="text-decoration:;">onEnable</tspan></tspan><tspan id="SvgjsTspan1254" dy="16" x="50"><tspan id="SvgjsTspan1255" style="text-decoration:;">插件启动事件</tspan></tspan></text></g></g><g id="SvgjsG1256" transform="translate(396,25)"><path id="SvgjsPath1257" d="M 0 0L 100 0L 100 70L 0 70Z" stroke="rgba(50,50,50,1)" stroke-width="2" fill-opacity="1" fill="#ffffff"></path><g id="SvgjsG1258"><text id="SvgjsText1259" font-family="微软雅黑" text-anchor="middle" font-size="13px" width="80px" fill="#323232" font-weight="400" align="middle" anchor="middle" family="微软雅黑" size="13px" weight="400" font-style="" opacity="1" y="17.05" transform="rotate(0)"><tspan id="SvgjsTspan1260" dy="16" x="50"><tspan id="SvgjsTspan1261" style="text-decoration:;">验证dll</tspan></tspan><tspan id="SvgjsTspan1262" dy="16" x="50"><tspan id="SvgjsTspan1263" style="text-decoration:;">初始化jni</tspan></tspan></text></g></g><g id="SvgjsG1264"><path id="SvgjsPath1265" d="M331 60L362 60L362 60L396 60" stroke="#323232" stroke-width="2" fill="none" marker-end="url(#SvgjsMarker1266)"></path></g><g id="SvgjsG1268" transform="translate(48,84)"><path id="SvgjsPath1269" d="M 16.666666666666668 0L 83.33333333333333 0C 105.55555555555556 0 105.55555555555556 50 83.33333333333333 50L 16.666666666666668 50C -5.555555555555556 50 -5.555555555555556 0 16.666666666666668 0Z" stroke="rgba(50,50,50,1)" stroke-width="2" fill-opacity="1" fill="#ffffff"></path><g id="SvgjsG1270"><text id="SvgjsText1271" font-family="微软雅黑" text-anchor="middle" font-size="13px" width="80px" fill="#323232" font-weight="400" align="middle" anchor="middle" family="微软雅黑" size="13px" weight="400" font-style="" opacity="1" y="15.05" transform="rotate(0)"><tspan id="SvgjsTspan1272" dy="16" x="50"><tspan id="SvgjsTspan1273" style="text-decoration:;">mirai</tspan></tspan></text></g></g><g id="SvgjsG1274"><path id="SvgjsPath1275" d="M148 109L189.5 109L189.5 60L231 60" stroke="#323232" stroke-width="2" fill="none" marker-end="url(#SvgjsMarker1276)"></path></g><g id="SvgjsG1278"><path id="SvgjsPath1279" d="M118 132L118 206L238 206" stroke="#323232" stroke-width="2" fill="none" marker-end="url(#SvgjsMarker1280)"></path></g><g id="SvgjsG1282"><path id="SvgjsPath1283" d="M338 206L370.5 206L370.5 253L403 253" stroke="#323232" stroke-width="2" fill="none" marker-end="url(#SvgjsMarker1284)"></path></g><g id="SvgjsG1286" transform="translate(403,218)"><path id="SvgjsPath1287" d="M 0 0L 100 0L 100 70L 0 70Z" stroke="rgba(50,50,50,1)" stroke-width="2" fill-opacity="1" fill="#ffffff"></path><g id="SvgjsG1288"><text id="SvgjsText1289" font-family="微软雅黑" text-anchor="middle" font-size="13px" width="80px" fill="#323232" font-weight="400" align="middle" anchor="middle" family="微软雅黑" size="13px" weight="400" font-style="" opacity="1" y="1.05" transform="rotate(0)"><tspan id="SvgjsTspan1290" dy="16" x="50"><tspan id="SvgjsTspan1291" style="text-decoration:;">kotlin部分分</tspan></tspan><tspan id="SvgjsTspan1292" dy="16" x="50"><tspan id="SvgjsTspan1293" style="text-decoration:;">流，构建json</tspan></tspan><tspan id="SvgjsTspan1294" dy="16" x="50"><tspan id="SvgjsTspan1295" style="text-decoration:;">如果有返回值</tspan></tspan><tspan id="SvgjsTspan1296" dy="16" x="50"><tspan id="SvgjsTspan1297" style="text-decoration:;">返回</tspan></tspan></text></g></g><g id="SvgjsG1298"><path id="SvgjsPath1299" d="M482 288L482 321L482 321L482 354" stroke="#323232" stroke-width="2" fill="none" marker-end="url(#SvgjsMarker1300)"></path><rect id="SvgjsRect1302" width="15" height="16" x="474.5" y="313" fill="#ffffff"></rect><text id="SvgjsText1303" font-family="微软雅黑" text-anchor="middle" font-size="13px" width="15px" fill="#323232" font-weight="400" align="top" anchor="middle" family="微软雅黑" size="13px" weight="400" font-style="" opacity="1" y="311.05" transform="rotate(0)"><tspan id="SvgjsTspan1304" dy="16" x="482"><tspan id="SvgjsTspan1305" style="text-decoration:;">jni</tspan></tspan></text></g><g id="SvgjsG1306" transform="translate(403,354)"><path id="SvgjsPath1307" d="M 0 0L 100 0L 100 70L 0 70Z" stroke="rgba(50,50,50,1)" stroke-width="2" fill-opacity="1" fill="#ffffff"></path><g id="SvgjsG1308"><text id="SvgjsText1309" font-family="微软雅黑" text-anchor="middle" font-size="13px" width="80px" fill="#323232" font-weight="400" align="middle" anchor="middle" family="微软雅黑" size="13px" weight="400" font-style="" opacity="1" y="1.05" transform="rotate(0)"><tspan id="SvgjsTspan1310" dy="16" x="50"><tspan id="SvgjsTspan1311" style="text-decoration:;">dll部分接收</tspan></tspan><tspan id="SvgjsTspan1312" dy="16" x="50"><tspan id="SvgjsTspan1313" style="text-decoration:;">构建数据结构</tspan></tspan><tspan id="SvgjsTspan1314" dy="16" x="50"><tspan id="SvgjsTspan1315" style="text-decoration:;">作为参数广播</tspan></tspan><tspan id="SvgjsTspan1316" dy="16" x="50"><tspan id="SvgjsTspan1317" style="text-decoration:;">事件</tspan></tspan></text></g></g><g id="SvgjsG1318"><path id="SvgjsPath1319" d="M118 134L118 253L238 253" stroke="#323232" stroke-width="2" fill="none" marker-end="url(#SvgjsMarker1320)"></path></g><g id="SvgjsG1322" transform="translate(238,234.5)"><path id="SvgjsPath1323" d="M 0 0L 100 0L 100 37L 0 37Z" stroke="rgba(50,50,50,1)" stroke-width="2" fill-opacity="1" fill="#ffffff"></path><g id="SvgjsG1324"><text id="SvgjsText1325" font-family="微软雅黑" text-anchor="middle" font-size="13px" width="80px" fill="#323232" font-weight="400" align="middle" anchor="middle" family="微软雅黑" size="13px" weight="400" font-style="" opacity="1" y="8.55" transform="rotate(0)"><tspan id="SvgjsTspan1326" dy="16" x="50"><tspan id="SvgjsTspan1327" style="text-decoration:;">私聊消息</tspan></tspan></text></g></g><g id="SvgjsG1328"><path id="SvgjsPath1329" d="M338 253L370.5 253L370.5 253L403 253" stroke="#323232" stroke-width="2" fill="none" marker-end="url(#SvgjsMarker1330)"></path></g><g id="SvgjsG1332"><path id="SvgjsPath1333" d="M118 134L118 302.5L238 302.5" stroke="#323232" stroke-width="2" fill="none" marker-end="url(#SvgjsMarker1334)"></path></g><g id="SvgjsG1336" transform="translate(238,187.5)"><path id="SvgjsPath1337" d="M 0 0L 100 0L 100 37L 0 37Z" stroke="rgba(50,50,50,1)" stroke-width="2" fill-opacity="1" fill="#ffffff"></path><g id="SvgjsG1338"><text id="SvgjsText1339" font-family="微软雅黑" text-anchor="middle" font-size="13px" width="80px" fill="#323232" font-weight="400" align="middle" anchor="middle" family="微软雅黑" size="13px" weight="400" font-style="" opacity="1" y="8.55" transform="rotate(0)"><tspan id="SvgjsTspan1340" dy="16" x="50"><tspan id="SvgjsTspan1341" style="text-decoration:;">私聊消息</tspan></tspan></text></g></g><g id="SvgjsG1342" transform="translate(238,284)"><path id="SvgjsPath1343" d="M 0 0L 100 0L 100 37L 0 37Z" stroke="rgba(50,50,50,1)" stroke-width="2" fill-opacity="1" fill="#ffffff"></path><g id="SvgjsG1344"><text id="SvgjsText1345" font-family="微软雅黑" text-anchor="middle" font-size="13px" width="80px" fill="#323232" font-weight="400" align="middle" anchor="middle" family="微软雅黑" size="13px" weight="400" font-style="" opacity="1" y="8.55" transform="rotate(0)"><tspan id="SvgjsTspan1346" dy="16" x="50"><tspan id="SvgjsTspan1347" style="text-decoration:;">...</tspan></tspan></text></g></g><g id="SvgjsG1348"><path id="SvgjsPath1349" d="M338 302.5L370.5 302.5L370.5 253L403 253" stroke="#323232" stroke-width="2" fill="none" marker-end="url(#SvgjsMarker1350)"></path></g><g id="SvgjsG1352"><path id="SvgjsPath1353" d="M403 389L353 389L353 389L303 389" stroke="#323232" stroke-width="2" fill="none" marker-end="url(#SvgjsMarker1354)"></path><rect id="SvgjsRect1356" width="26" height="16" x="340" y="381" fill="#ffffff"></rect><text id="SvgjsText1357" font-family="微软雅黑" text-anchor="middle" font-size="13px" width="26px" fill="#323232" font-weight="400" align="top" anchor="middle" family="微软雅黑" size="13px" weight="400" font-style="" opacity="1" y="379.05" transform="rotate(0)"><tspan id="SvgjsTspan1358" dy="16" x="353"><tspan id="SvgjsTspan1359" style="text-decoration:;">数据</tspan></tspan></text></g><g id="SvgjsG1360" transform="translate(192,342.5)"><path id="SvgjsPath1361" d="M 0 0L 111 0L 111 93L 0 93Z" stroke="rgba(50,50,50,1)" stroke-width="2" fill-opacity="1" fill="#ffffff"></path><g id="SvgjsG1362"><text id="SvgjsText1363" font-family="微软雅黑" text-anchor="middle" font-size="13px" width="91px" fill="#323232" font-weight="400" align="middle" anchor="middle" family="微软雅黑" size="13px" weight="400" font-style="" opacity="1" y="4.55" transform="rotate(0)"><tspan id="SvgjsTspan1364" dy="16" x="55.5"><tspan id="SvgjsTspan1365" style="text-decoration:;">逐个执行(也就</tspan></tspan><tspan id="SvgjsTspan1366" dy="16" x="55.5"><tspan id="SvgjsTspan1367" style="text-decoration:;">是广播)存在</tspan></tspan><tspan id="SvgjsTspan1368" dy="16" x="55.5"><tspan id="SvgjsTspan1369" style="text-decoration:;">vector(动态数</tspan></tspan><tspan id="SvgjsTspan1370" dy="16" x="55.5"><tspan id="SvgjsTspan1371" style="text-decoration:;">组)里的lambda</tspan></tspan><tspan id="SvgjsTspan1372" dy="16" x="55.5"><tspan id="SvgjsTspan1373" style="text-decoration:;">并传入对应数据</tspan></tspan></text></g></g><g id="SvgjsG1374"><path id="SvgjsPath1375" d="M247.5 435.5L247.5 465.5L453 465.5L453 424" stroke="#323232" stroke-width="2" fill="none" marker-end="url(#SvgjsMarker1376)"></path><rect id="SvgjsRect1378" width="78" height="16" x="317" y="457.5" fill="#ffffff"></rect><text id="SvgjsText1379" font-family="微软雅黑" text-anchor="middle" font-size="13px" width="78px" fill="#323232" font-weight="400" align="top" anchor="middle" family="微软雅黑" size="13px" weight="400" font-style="" opacity="1" y="455.55" transform="rotate(0)"><tspan id="SvgjsTspan1380" dy="16" x="356"><tspan id="SvgjsTspan1381" style="text-decoration:;">部分有返回值</tspan></tspan></text></g><g id="SvgjsG1382"><path id="SvgjsPath1383" d="M434 354L434 321L434 321L434 288" stroke="#323232" stroke-width="2" fill="none" marker-end="url(#SvgjsMarker1384)"></path><rect id="SvgjsRect1386" width="15" height="16" x="426.5" y="313" fill="#ffffff"></rect><text id="SvgjsText1387" font-family="微软雅黑" text-anchor="middle" font-size="13px" width="15px" fill="#323232" font-weight="400" align="top" anchor="middle" family="微软雅黑" size="13px" weight="400" font-style="" opacity="1" y="311.05" transform="rotate(0)"><tspan id="SvgjsTspan1388" dy="16" x="434"><tspan id="SvgjsTspan1389" style="text-decoration:;">jni</tspan></tspan></text></g><g id="SvgjsG1390"><path id="SvgjsPath1391" d="M403 253L370.5 253L370.5 302.5L338 302.5" stroke="#323232" stroke-width="2" fill="none" marker-end="url(#SvgjsMarker1392)"></path></g><g id="SvgjsG1394"><path id="SvgjsPath1395" d="M403 253L370.5 253L370.5 253L338 253" stroke="#323232" stroke-width="2" fill="none" marker-end="url(#SvgjsMarker1396)"></path></g><g id="SvgjsG1398"><path id="SvgjsPath1399" d="M403 253L370.5 253L370.5 206L338 206" stroke="#323232" stroke-width="2" fill="none" marker-end="url(#SvgjsMarker1400)"></path></g><g id="SvgjsG1402"><path id="SvgjsPath1403" d="M238 302.5L118 302.5L118 134" stroke="#323232" stroke-width="2" fill="none" marker-end="url(#SvgjsMarker1404)"></path></g><g id="SvgjsG1406"><path id="SvgjsPath1407" d="M74 354L74 244L74 244L74 134" stroke="#323232" stroke-width="2" fill="none" marker-end="url(#SvgjsMarker1408)"></path><rect id="SvgjsRect1410" width="15" height="16" x="66.5" y="236" fill="#ffffff"></rect><text id="SvgjsText1411" font-family="微软雅黑" text-anchor="middle" font-size="13px" width="15px" fill="#323232" font-weight="400" align="top" anchor="middle" family="微软雅黑" size="13px" weight="400" font-style="" opacity="1" y="234.05" transform="rotate(0)"><tspan id="SvgjsTspan1412" dy="16" x="74"><tspan id="SvgjsTspan1413" style="text-decoration:;">jni</tspan></tspan></text></g><g id="SvgjsG1414"><path id="SvgjsPath1415" d="M192 389L158.5 389L158.5 389L125 389" stroke="#323232" stroke-width="2" fill="none" marker-end="url(#SvgjsMarker1416)"></path></g><g id="SvgjsG1418" transform="translate(25,354)"><path id="SvgjsPath1419" d="M 0 0L 100 0L 100 70L 0 70Z" stroke="rgba(50,50,50,1)" stroke-width="2" fill-opacity="1" fill="#ffffff"></path><g id="SvgjsG1420"><text id="SvgjsText1421" font-family="微软雅黑" text-anchor="middle" font-size="13px" width="80px" fill="#323232" font-weight="400" align="middle" anchor="middle" family="微软雅黑" size="13px" weight="400" font-style="" opacity="1" y="1.05" transform="rotate(0)"><tspan id="SvgjsTspan1422" dy="16" x="50"><tspan id="SvgjsTspan1423" style="text-decoration:;">通过一些方法</tspan></tspan><tspan id="SvgjsTspan1424" dy="16" x="50"><tspan id="SvgjsTspan1425" style="text-decoration:;">直接执行</tspan></tspan><tspan id="SvgjsTspan1426" dy="16" x="50"><tspan id="SvgjsTspan1427" style="text-decoration:;">mirai操作(如</tspan></tspan><tspan id="SvgjsTspan1428" dy="16" x="50"><tspan id="SvgjsTspan1429" style="text-decoration:;">发送消息)</tspan></tspan></text></g></g><g id="SvgjsG1430"><path id="SvgjsPath1431" d="M496 60L526.5 60L526.5 60L557 60" stroke="#323232" stroke-width="2" fill="none" marker-end="url(#SvgjsMarker1432)"></path><rect id="SvgjsRect1434" width="15" height="16" x="519" y="52" fill="#ffffff"></rect><text id="SvgjsText1435" font-family="微软雅黑" text-anchor="middle" font-size="13px" width="15px" fill="#323232" font-weight="400" align="top" anchor="middle" family="微软雅黑" size="13px" weight="400" font-style="" opacity="1" y="50.05" transform="rotate(0)"><tspan id="SvgjsTspan1436" dy="16" x="526.5"><tspan id="SvgjsTspan1437" style="text-decoration:;">jni</tspan></tspan></text></g><g id="SvgjsG1438" transform="translate(557,25)"><path id="SvgjsPath1439" d="M 0 0L 100 0L 100 70L 0 70Z" stroke="rgba(50,50,50,1)" stroke-width="2" fill-opacity="1" fill="#ffffff"></path><g id="SvgjsG1440"><text id="SvgjsText1441" font-family="微软雅黑" text-anchor="middle" font-size="13px" width="80px" fill="#323232" font-weight="400" align="middle" anchor="middle" family="微软雅黑" size="13px" weight="400" font-style="" opacity="1" y="1.05" transform="rotate(0)"><tspan id="SvgjsTspan1442" dy="16" x="50"><tspan id="SvgjsTspan1443" style="text-decoration:;">返回指定值验</tspan></tspan><tspan id="SvgjsTspan1444" dy="16" x="50"><tspan id="SvgjsTspan1445" style="text-decoration:;">证并调用</tspan></tspan><tspan id="SvgjsTspan1446" dy="16" x="50"><tspan id="SvgjsTspan1447" style="text-decoration:;">c++部分的</tspan></tspan><tspan id="SvgjsTspan1448" dy="16" x="50"><tspan id="SvgjsTspan1449" style="text-decoration:;">onEnable()</tspan></tspan></text></g></g><g id="SvgjsG1450"><path id="SvgjsPath1451" d="M557 60L526.5 60L526.5 60L496 60" stroke="#323232" stroke-width="2" fill="none" marker-end="url(#SvgjsMarker1452)"></path><rect id="SvgjsRect1454" width="15" height="16" x="519" y="52" fill="#ffffff"></rect><text id="SvgjsText1455" font-family="微软雅黑" text-anchor="middle" font-size="13px" width="15px" fill="#323232" font-weight="400" align="top" anchor="middle" family="微软雅黑" size="13px" weight="400" font-style="" opacity="1" y="50.05" transform="rotate(0)"><tspan id="SvgjsTspan1456" dy="16" x="526.5"><tspan id="SvgjsTspan1457" style="text-decoration:;">jni</tspan></tspan></text></g><g id="SvgjsG1458"><path id="SvgjsPath1459" d="M148 109L189.5 109L189.5 141L231 141" stroke="#323232" stroke-width="2" fill="none" marker-end="url(#SvgjsMarker1460)"></path></g><g id="SvgjsG1462" transform="translate(231,106)"><path id="SvgjsPath1463" d="M 0 0L 100 0L 100 70L 0 70Z" stroke="rgba(50,50,50,1)" stroke-width="2" fill-opacity="1" fill="#ffffff"></path><g id="SvgjsG1464"><text id="SvgjsText1465" font-family="微软雅黑" text-anchor="middle" font-size="13px" width="80px" fill="#323232" font-weight="400" align="middle" anchor="middle" family="微软雅黑" size="13px" weight="400" font-style="" opacity="1" y="17.05" transform="rotate(0)"><tspan id="SvgjsTspan1466" dy="16" x="50"><tspan id="SvgjsTspan1467" style="text-decoration:;">onDisable</tspan></tspan><tspan id="SvgjsTspan1468" dy="16" x="50"><tspan id="SvgjsTspan1469" style="text-decoration:;">插件结束事件</tspan></tspan></text></g></g><g id="SvgjsG1470"><path id="SvgjsPath1471" d="M331 141L362 141L362 141L393 141" stroke="#323232" stroke-width="2" fill="none" marker-end="url(#SvgjsMarker1472)"></path><rect id="SvgjsRect1474" width="15" height="16" x="354.5" y="133" fill="#ffffff"></rect><text id="SvgjsText1475" font-family="微软雅黑" text-anchor="middle" font-size="13px" width="15px" fill="#323232" font-weight="400" align="top" anchor="middle" family="微软雅黑" size="13px" weight="400" font-style="" opacity="1" y="131.05" transform="rotate(0)"><tspan id="SvgjsTspan1476" dy="16" x="362"><tspan id="SvgjsTspan1477" style="text-decoration:;">jni</tspan></tspan></text></g><g id="SvgjsG1478" transform="translate(393,106)"><path id="SvgjsPath1479" d="M 0 0L 100 0L 100 70L 0 70Z" stroke="rgba(50,50,50,1)" stroke-width="2" fill-opacity="1" fill="#ffffff"></path><g id="SvgjsG1480"><text id="SvgjsText1481" font-family="微软雅黑" text-anchor="middle" font-size="13px" width="80px" fill="#323232" font-weight="400" align="middle" anchor="middle" family="微软雅黑" size="13px" weight="400" font-style="" opacity="1" y="17.05" transform="rotate(0)"><tspan id="SvgjsTspan1482" dy="16" x="50"><tspan id="SvgjsTspan1483" style="text-decoration:;">调用c++部分</tspan></tspan><tspan id="SvgjsTspan1484" dy="16" x="50"><tspan id="SvgjsTspan1485" style="text-decoration:;">onDisable</tspan></tspan></text></g></g></svg>